<svg xmlns="http://www.w3.org/2000/svg" version="1.1" xmlns:xlink="http://www.w3.org/1999/xlink" width="512" height="512" x="0" y="0" viewBox="0 0 453.543 453.543" style="enable-background:new 0 0 512 512" xml:space="preserve" class=""><g><path fill="#ff8d7d" d="M226.772 129.104c-102.112 0-184.922 82.574-185.34 184.588h25.487c.418-87.938 71.817-159.101 159.853-159.101s159.435 71.163 159.853 159.101h25.487c-.418-102.014-83.228-184.588-185.34-184.588z" opacity="1" data-original="#ff8d7d" class=""></path><path fill="#ffa39f" d="M226.772 154.591c-88.036 0-159.435 71.163-159.853 159.101h26.128c.417-73.508 60.118-132.973 133.725-132.973 73.606 0 133.308 59.465 133.725 132.973h26.128c-.418-87.938-71.817-159.101-159.853-159.101z" opacity="1" data-original="#ffa39f" class=""></path><path fill="#f9c875" d="M226.772 180.719c-73.607 0-133.307 59.465-133.725 132.973h27.25c.417-58.458 47.918-105.723 106.475-105.723s106.058 47.265 106.475 105.723h27.251c-.419-73.508-60.12-132.973-133.726-132.973z" opacity="1" data-original="#f9c875"></path><path fill="#97e8ee" d="M226.772 207.969c-58.557 0-106.058 47.265-106.475 105.723h30.984c.419-41.354 34.037-74.758 75.491-74.758 41.453 0 75.072 33.404 75.491 74.758h30.984c-.417-58.458-47.919-105.723-106.475-105.723z" opacity="1" data-original="#97e8ee"></path><path fill="#684571" d="M226.772 238.934c-41.453 0-75.072 33.404-75.491 74.758h31.288c.416-24.074 20.029-43.47 44.202-43.47 24.174 0 43.787 19.396 44.203 43.47h31.288c-.418-41.354-34.037-74.758-75.49-74.758z" opacity="1" data-original="#684571"></path><path fill="#310636" d="M226.772 264.553c-27.326 0-49.496 21.925-49.966 49.139h25.11c1.176-13.774 11.834-24.569 24.856-24.569s23.68 10.795 24.856 24.569h25.11c-.47-27.213-22.641-49.139-49.966-49.139z" opacity="1" data-original="#310636"></path><path fill="#ffffff" d="M239.387 218.942c-.046-3.273-2.712-6.077-5.979-6.277a6.36 6.36 0 0 0-3.92 1.045 4.881 4.881 0 0 1-5.433 0 6.36 6.36 0 0 0-3.92-1.045c-3.267.2-5.932 3.004-5.979 6.277a6.365 6.365 0 0 0 .695 2.984l-.003.001s3.136 6.925 11.923 6.925 11.923-6.925 11.923-6.925l-.002-.001a6.35 6.35 0 0 0 .695-2.984z" opacity="1" data-original="#ffffff"></path><g fill="#310636"><path d="M225.638 214.526v14.327c0 1.103 1.714 1.105 1.714 0v-14.327c0-1.104-1.714-1.105-1.714 0zM229.105 213.813l2.92 11.869.41 1.668c.263 1.071 1.917.617 1.653-.456l-2.92-11.869-.41-1.668c-.264-1.07-1.917-.617-1.653.456zM232.904 213.225l4.14 8.501.594 1.22c.483.992 1.962.124 1.48-.865l-4.14-8.501-.594-1.22c-.482-.992-1.961-.124-1.48.865zM222.815 213.357l-2.915 11.848-.41 1.666c-.264 1.071 1.389 1.528 1.653.456l2.915-11.848.41-1.665c.264-1.072-1.389-1.529-1.653-.457zM219.119 212.503l-4.079 8.375-.586 1.202c-.481.988.997 1.858 1.48.865l4.079-8.375.585-1.202c.482-.987-.996-1.857-1.479-.865z" fill="#310636" opacity="1" data-original="#310636"></path></g><path fill="#ffffff" d="M194.903 163.783c-15.37 0-27.83 12.46-27.83 27.829 0 6.35 2.131 12.2 5.711 16.883a37.779 37.779 0 0 1 5.857-2.531c4.857-1.649 10.503-2.598 16.534-2.598 5.856 0 11.35.895 16.111 2.456 2.122.696 4.102 1.522 5.898 2.465a27.7 27.7 0 0 0 5.547-16.675c.001-15.369-12.458-27.829-27.828-27.829z" opacity="1" data-original="#ffffff"></path><path fill="#310636" d="M194.903 169.92c-11.981 0-21.693 9.712-21.693 21.693a21.607 21.607 0 0 0 5.432 14.351c4.857-1.648 10.503-2.597 16.534-2.597 5.856 0 11.35.895 16.111 2.456a21.606 21.606 0 0 0 5.309-14.21c0-11.981-9.713-21.693-21.693-21.693z" opacity="1" data-original="#310636"></path><path fill="#ffffff" d="M258.64 163.783c-15.37 0-27.829 12.46-27.829 27.829 0 6.35 2.131 12.2 5.711 16.883a37.82 37.82 0 0 1 5.857-2.531c4.857-1.649 10.503-2.598 16.534-2.598 5.856 0 11.35.895 16.111 2.456 2.123.696 4.102 1.522 5.898 2.465a27.707 27.707 0 0 0 5.547-16.675c0-15.369-12.459-27.829-27.829-27.829z" opacity="1" data-original="#ffffff"></path><path fill="#310636" d="M258.64 169.92c-11.981 0-21.693 9.712-21.693 21.693a21.607 21.607 0 0 0 5.432 14.351c4.857-1.648 10.503-2.597 16.534-2.597 5.856 0 11.35.895 16.111 2.456a21.601 21.601 0 0 0 5.309-14.21c0-11.981-9.712-21.693-21.693-21.693z" opacity="1" data-original="#310636"></path><ellipse cx="171.536" cy="208.495" fill="#ff8d7d" rx="11.489" ry="6.227" opacity="1" data-original="#ff8d7d" class=""></ellipse><path fill="#ff8d7d" d="M293.496 208.495c0 3.439-5.144 6.227-11.489 6.227s-11.489-2.788-11.489-6.227 5.144-6.227 11.489-6.227c6.346 0 11.489 2.788 11.489 6.227z" opacity="1" data-original="#ff8d7d" class=""></path><path fill="#fef4f2" d="M207.11 302.839c-5.829 0-11.109 2.32-14.995 6.073-7.082-31.53-35.198-55.106-68.866-55.106-30.607 0-56.59 19.504-66.397 46.731-6.034-5.906-14.283-9.557-23.393-9.557C14.98 290.98 0 305.961 0 324.44h228.71c0-11.93-9.671-21.601-21.6-21.601zM272.643 305.573c5.092 0 9.703 2.026 13.097 5.304 6.186-27.54 30.744-48.132 60.151-48.132 26.734 0 49.429 17.035 57.995 40.817 5.27-5.158 12.475-8.348 20.432-8.348 16.141 0 29.225 13.085 29.225 29.225H253.776c0-10.419 8.447-18.866 18.867-18.866z" opacity="1" data-original="#fef4f2" class=""></path></g></svg>
